<svg id="Layer_1" data-name="Layer 1" xmlns="http://www.w3.org/2000/svg" viewBox="0 0 5977.41 2186.53"><defs><style>.cls-1{stroke:#000;stroke-miterlimit:10;stroke-width:0.5px;}.cls-2{fill:#6acbdf;}</style></defs><title>logo</title><path d="M243.5,76.59q120,108.78,120,176.57,0,18-12.21,40.24t-56.57,66.09Q260.54,392.7,252,406.34t-8.53,23.89q0,9.79,8.53,23.41T294.71,501q44.37,43.92,56.57,65.86t12.21,40q0,18.06-12.21,40.25t-56.57,65.61Q260.54,746.34,252,760T243.5,783.9q0,46.8,107.3,141.93l-35.12,34.66q-120-108.81-120-176.59,0-18.06,12.44-40.25T265,677.56q33.68-33.16,42.2-46.84t8.53-23.9q0-9.75-8.53-23.41T265,536.08q-44.4-43.91-56.82-65.83t-12.44-40q0-18,12.44-40.24T265,323.9q33.68-33.18,42.2-46.82t8.53-23.92q0-46.82-106.82-141.94Z"/><path d="M1188.92,15.62l-12.67,103.89H915.76L891.85,313.66h260.48l-11.71,96.56h-261l-43.9,358.54H724L817.22,15.62Z"/><path d="M1996.54,15.62,1941.9,461.46q-18.54,147.32-69.27,215.59-81.47,106.38-226.33,106.37-116.11,0-193.65-70.26-77.09-71.22-77.09-176.59,0-22.44,1.73-47.31t5.1-52.68l51.72-421h111.21l-53.16,435.1q-2.45,19.5-3.66,36.11c-.81,11-1.22,21.3-1.22,30.72q0,75.15,42,118.55,42.42,43.41,115.12,43.39,84.89,0,128.78-54.61,43.9-55.11,59.51-179l52.69-430.23Z"/><path d="M2498.31,119.51l-80,649.25H2306.61l80-649.25h-180l12.69-103.89h463.89l-12.67,103.89Z"/><path d="M3468.36,15.62l-54.64,445.84q-18.51,147.32-69.27,215.59Q3263,783.43,3118.12,783.42q-116.09,0-193.65-70.26-77.08-71.22-77.09-176.59,0-22.44,1.73-47.31t5.1-52.68l51.72-421h111.21L2964,450.72q-2.43,19.5-3.65,36.11c-.81,11-1.22,21.3-1.22,30.72q0,75.15,41.94,118.55,42.43,43.41,115.13,43.39,84.89,0,128.78-54.61,43.9-55.11,59.51-179l52.69-430.23Z"/><path d="M3978.91,451.2l189.27,317.56H4050.13L3871.61,459h-40.49l-38.07,309.74H3681.36L3774,15.62h147.8q72.21,0,114.63,13.16,41.94,12.21,73.18,44.88,59,60.5,59,156.1Q4168.68,404.86,3978.91,451.2ZM3872.58,119.51l-29.25,241.94h51.19q56.59,0,84.39-10.72,29.79-10.74,49.77-36.58Q4056,278,4056,229.26q0-57.06-32.93-83.4T3919.4,119.51Z"/><path d="M4881.65,15.62,4869,119.51H4592.4l-23.92,195.12h276.61l-11.73,96.58H4556.78l-31.21,253.66h276.56L4789,768.76H4401.16l92.68-753.14Z"/><path d="M5302.93,42,5148.81,301l-60-32.68L5227.83.48Z"/><path d="M5977.41,111.71l-74.65,71.22q-53.16-78-121.95-78.05-49.79,0-82.44,30.73t-32.68,77.07q0,37.08,22.44,63.89,11.23,12.72,32.94,28.79t54.38,35.6q97.05,56.6,129.75,102.45,33.17,46.35,33.16,121.47,0,97.53-64.39,158-63.37,60.51-167.3,60.51-83.91,0-142-36.11-29.25-18.06-54.64-47.07t-48.75-70.49l84.86-57.56q34.65,61,67.79,83.89T5700.32,679q59,0,92.45-31.21T5826.18,559q0-39.5-24.37-66.83-12.23-14.13-36.36-31.71T5704.23,421q-84.88-50.23-118.55-95.59-32.18-45.4-32.19-113.66,0-91.21,63.42-151.22Q5680.33,0,5776.93,0q62.91,0,107.3,25.37Q5929.59,50.74,5977.41,111.71Z"/><path d="M829.33,1143.23l62,824.38H785l-33.67-480L459.6,2020.29,298.11,1487.6l-150.23,480H33.74l260.49-806.33L485,1776.87Z"/><path d="M1434.75,1790.53,1343,1967.61H1221.59l416.59-806.84,260,806.84h-116.6l-54.64-177.08ZM1483,1694h212.7l-81-267.8Z"/><path d="M2530.89,1650.05l189.26,317.56h-118l-178.55-309.77h-40.5l-38,309.77H2233.31l92.7-753.16h147.8q72.17,0,114.64,13.17,41.93,12.2,73.15,44.87,59,60.48,59,156.1Q2720.63,1603.72,2530.89,1650.05Zm-106.34-331.71-29.27,242h51.21q56.6,0,84.4-10.74,29.74-10.69,49.74-36.59,27.3-36.06,27.32-84.85,0-57.09-32.93-83.44t-103.65-26.33Z"/><path d="M3279.22,1214.45l-39,320,304.38-320h141l-351.2,350.23,316.11,402.93H3515.81l-283.89-367.33L3187,1967.61H3075.31L3168,1214.45Z"/><path d="M4475.83,1214.45l-12.67,103.89h-276.6l-23.89,195.13h276.58l-11.71,96.59H4151l-31.23,253.65h276.61l-13.18,103.9H3995.37L4088,1214.45Z"/><path d="M5062.23,1318.34l-80,649.27H4870.53l80-649.27h-180l12.67-103.89H5247.1l-12.67,103.89Z"/><path class="cls-1" d="M5679.32,1275.41q120.06,108.81,120,176.59,0,18.06-12.22,40.25t-56.57,66.09q-34.16,33.17-42.68,46.84t-8.56,23.9q0,9.75,8.56,23.41t42.68,47.32q44.37,43.88,56.57,65.84t12.22,40q0,18-12.22,40.24t-56.57,65.61q-34.16,33.63-42.68,47.3t-8.56,23.92q0,46.82,107.36,141.93l-35.14,34.64q-120-108.78-120-176.57,0-18,12.44-40.24t56.82-66.12q33.68-33.14,42.2-46.82t8.54-23.89q0-9.75-8.54-23.44t-42.2-47.3q-44.4-43.92-56.82-65.86t-12.44-40q0-18.06,12.44-40.25t56.82-66.09q33.68-33.18,42.2-46.85t8.54-23.89q0-46.85-106.85-142Z"/><path class="cls-2" d="M209.75,103.82q120,108.78,120,176.58,0,18.06-12.21,40.25T261,386.74q-34.15,33.17-42.68,46.82t-8.53,23.92q0,9.75,8.53,23.41T261,528.19q44.37,43.9,56.58,65.86t12.21,40q0,18.06-12.21,40.25T261,739.9q-34.15,33.66-42.68,47.32t-8.53,23.9q0,46.85,107.3,142l-35.11,34.63q-120-108.78-120-176.59,0-18.06,12.44-40.25t56.83-66.09q33.66-33.16,42.2-46.82T281.94,634q0-9.75-8.53-23.41t-42.2-47.3q-44.42-43.92-56.83-65.86t-12.44-40q0-18.06,12.44-40.25t56.83-66.12q33.66-33.14,42.2-46.82t8.53-23.89q0-46.83-106.82-141.94Z"/><path class="cls-2" d="M1155.17,42.85l-12.67,103.9H882L858.1,340.88h260.48l-11.7,96.59h-261L802,796H690.29L783.48,42.85Z"/><path class="cls-2" d="M1962.8,42.85l-54.64,445.83Q1889.61,636,1838.89,704.3q-81.47,106.34-226.33,106.33-116.13,0-193.66-70.23-77.09-71.22-77.08-176.59,0-22.42,1.72-47.33t5.11-52.68l51.72-420.95h111.21L1458.41,478q-2.43,19.5-3.65,36.08t-1.22,30.74q0,75.11,41.94,118.53,42.43,43.41,115.12,43.42,84.9,0,128.78-54.65,43.92-55.11,59.52-179l52.69-430.22Z"/><path class="cls-2" d="M2464.57,146.75l-80,649.26H2272.87l80-649.26h-180l12.7-103.9h463.89l-12.67,103.9Z"/><path class="cls-2" d="M3434.62,42.85,3380,488.68Q3361.42,636,3310.71,704.3q-81.47,106.34-226.33,106.33-116.13,0-193.66-70.23-77.08-71.22-77.08-176.59,0-22.42,1.72-47.33t5.11-52.68l51.72-420.95H2983.4L2930.23,478q-2.43,19.5-3.66,36.08t-1.21,30.74q0,75.11,41.94,118.53,42.43,43.41,115.12,43.42,84.85,0,128.78-54.65,43.88-55.11,59.52-179l52.66-430.22Z"/><path class="cls-2" d="M3945.17,478.45,4134.46,796H4016.39L3837.84,486.24h-40.47l-38,309.77H3647.62l92.67-753.16h147.83q72.16,0,114.61,13.16,42,12.21,73.18,44.88,59,60.49,59,156.1Q4134.91,432.12,3945.17,478.45Zm-106.34-331.7-29.27,241.94h51.24q56.55,0,84.37-10.74,29.74-10.69,49.77-36.59,27.3-36.06,27.29-84.88,0-57-32.91-83.39t-103.64-26.34Z"/><path class="cls-2" d="M4847.91,42.85l-12.67,103.9H4558.63l-23.89,195.1h276.58l-11.7,96.58H4523L4491.8,692.11h276.61L4755.23,796H4367.44l92.68-753.16Z"/><path class="cls-2" d="M5269.19,69.18,5115,328.21l-60-32.7,139-267.8Z"/><path class="cls-2" d="M5943.64,138.94,5869,210.16q-53.18-78-122-78-49.74,0-82.42,30.73T5632,239.92q0,37.07,22.44,63.89,11.2,12.69,32.91,28.77t54.41,35.62q97.08,56.6,129.75,102.43,33.16,46.35,33.18,121.47,0,97.57-64.39,158-63.45,60.48-167.32,60.48-83.91,0-141.94-36.1-29.28-18-54.64-47.08T5427.55,657l84.88-57.56q34.62,61,67.82,83.92t86.33,22.92q59,0,92.45-31.23t33.41-88.76q0-39.54-24.4-66.83-12.2-14.17-36.33-31.71t-61.22-39.51Q5585.64,398,5552,352.59q-32.22-45.36-32.19-113.65,0-91.21,63.4-151.22,63.42-60.48,160-60.49,62.91,0,107.32,25.37Q5895.84,78,5943.64,138.94Z"/><path class="cls-2" d="M795.59,1170.44l61.95,824.39H751.21l-33.67-480L425.85,2047.51,264.37,1514.82l-150.24,480H0L260.48,1188.5l190.74,615.59Z"/><path class="cls-2" d="M1401,1817.75l-91.71,177.08H1187.85L1604.43,1188l260,806.84H1747.84l-54.64-177.08Zm48.3-96.58H1662l-81-267.8Z"/><path class="cls-2" d="M2497.14,1677.27l189.26,317.56h-118l-178.54-309.77h-40.5l-38,309.77H2199.56l92.71-753.16h147.79q72.18,0,114.64,13.17,41.94,12.2,73.15,44.87,59,60.48,59,156.1Q2686.89,1630.94,2497.14,1677.27Zm-106.33-331.71-29.28,242h51.21q56.6,0,84.4-10.74,29.74-10.69,49.74-36.59,27.32-36.06,27.32-84.85,0-57.09-32.93-83.44t-103.64-26.33Z"/><path class="cls-2" d="M3245.48,1241.67l-39,320,304.4-320h141L3300.6,1591.9l316.09,402.93H3482.07L3198.15,1627.5l-44.86,367.33h-111.7l92.68-753.16Z"/><path class="cls-2" d="M4442.09,1241.67l-12.7,103.89H4152.84l-23.92,195.13h276.61l-11.73,96.59H4117.22L4086,1890.93h276.56l-13.16,103.9H3961.6l92.67-753.16Z"/><path class="cls-2" d="M5028.49,1345.56l-80,649.27H4836.76l80-649.27h-180l12.7-103.89h463.89l-12.7,103.89Z"/><path class="cls-2" d="M5645.61,1302.63q120,108.81,120,176.59,0,18-12.19,40.24t-56.59,66.1q-34.17,33.17-42.68,46.84t-8.53,23.89q0,9.75,8.53,23.41t42.68,47.33q44.37,43.88,56.59,65.84t12.19,40q0,18-12.19,40.24t-56.59,65.61q-34.17,33.63-42.68,47.3t-8.53,23.92q0,46.82,107.3,141.93l-35.12,34.64q-120-108.78-120-176.57,0-18.06,12.45-40.24t56.82-66.12q33.63-33.13,42.2-46.82c5.66-9.09,8.53-17.06,8.53-23.89,0-6.5-2.87-14.32-8.53-23.44s-19.78-24.86-42.2-47.3q-44.37-43.92-56.82-65.87t-12.45-40q0-18,12.45-40.24t56.82-66.09q33.63-33.18,42.2-46.85c5.66-9.09,8.53-17.06,8.53-23.89q0-46.85-106.82-142Z"/></svg>