<?xml version="1.0" encoding="utf-8"?>
<!-- Generator: Adobe Illustrator 23.0.2, SVG Export Plug-In . SVG Version: 6.00 Build 0)  -->
<svg version="1.1" id="Layer_1" xmlns="http://www.w3.org/2000/svg" xmlns:xlink="http://www.w3.org/1999/xlink" x="0px" y="0px"
	 viewBox="0 0 1296 1728" style="enable-background:new 0 0 1296 1728;" xml:space="preserve">
<style type="text/css">
	.st0{stroke:#000000;stroke-width:0.5;stroke-miterlimit:10;}
	.st1{fill:#6ACBDF;}
</style>
<g>
	<path d="M126.39,701.85c15.38,13.95,23.08,25.27,23.08,33.96c0,2.31-0.79,4.9-2.35,7.74c-1.56,2.85-5.19,7.08-10.88,12.71
		c-4.38,4.26-7.11,7.26-8.21,9.01s-1.64,3.28-1.64,4.59c0,1.25,0.55,2.75,1.64,4.5c1.09,1.75,3.83,4.79,8.21,9.1
		c5.69,5.63,9.32,9.85,10.88,12.67c1.56,2.81,2.35,5.38,2.35,7.69s-0.79,4.89-2.35,7.74s-5.19,7.05-10.88,12.62
		c-4.38,4.32-7.11,7.35-8.21,9.1c-1.09,1.75-1.64,3.29-1.64,4.6c0,6,6.88,15.1,20.63,27.29l-6.75,6.67
		c-15.39-13.95-23.08-25.27-23.08-33.96c0-2.31,0.8-4.89,2.39-7.74c1.59-2.85,5.23-7.08,10.93-12.71c4.32-4.25,7.02-7.26,8.12-9.01
		c1.09-1.75,1.64-3.28,1.64-4.59c0-1.25-0.55-2.75-1.64-4.5c-1.09-1.75-3.8-4.79-8.12-9.1c-5.69-5.63-9.34-9.85-10.93-12.66
		c-1.6-2.82-2.39-5.38-2.39-7.7s0.8-4.89,2.39-7.74c1.59-2.84,5.23-7.08,10.93-12.71c4.32-4.25,7.02-7.26,8.12-9
		c1.09-1.75,1.64-3.29,1.64-4.6c0-6-6.85-15.1-20.54-27.29L126.39,701.85z"/>
	<path d="M308.2,690.13l-2.44,19.98h-50.09l-4.6,37.34h50.09l-2.25,18.57h-50.19l-8.44,68.95H218.8l17.92-144.84H308.2z"/>
	<path d="M463.51,690.13L453,775.87c-2.38,18.89-6.82,32.71-13.32,41.46c-10.44,13.64-24.95,20.45-43.53,20.45
		c-14.89,0-27.3-4.51-37.24-13.51c-9.88-9.13-14.82-20.45-14.82-33.96c0-2.88,0.11-5.91,0.33-9.1c0.21-3.19,0.54-6.57,0.98-10.13
		l9.95-80.95h21.39l-10.22,83.67c-0.31,2.5-0.55,4.81-0.7,6.94c-0.16,2.12-0.23,4.1-0.23,5.91c0,9.63,2.69,17.23,8.07,22.8
		c5.44,5.57,12.82,8.34,22.14,8.34c10.88,0,19.14-3.5,24.77-10.5c5.63-7.07,9.44-18.54,11.45-34.43l10.13-82.74H463.51z"/>
	<path d="M560.01,710.11l-15.39,124.86h-21.48l15.38-124.86h-34.61l2.44-19.98h89.21l-2.44,19.98H560.01z"/>
	<path d="M746.55,690.13l-10.51,85.74c-2.37,18.89-6.82,32.71-13.32,41.46c-10.44,13.64-24.95,20.45-43.53,20.45
		c-14.88,0-27.3-4.51-37.24-13.51c-9.88-9.13-14.82-20.45-14.82-33.96c0-2.88,0.11-5.91,0.33-9.1c0.21-3.19,0.54-6.57,0.98-10.13
		l9.95-80.95h21.39l-10.22,83.67c-0.31,2.5-0.55,4.81-0.7,6.94c-0.16,2.12-0.23,4.1-0.23,5.91c0,9.63,2.69,17.23,8.07,22.8
		c5.44,5.57,12.82,8.34,22.14,8.34c10.88,0,19.14-3.5,24.77-10.5c5.63-7.07,9.44-18.54,11.45-34.43l10.13-82.74H746.55z"/>
	<path d="M844.74,773.9l36.4,61.07h-22.7L824.1,775.4h-7.79L809,834.96h-21.48l17.82-144.84h28.42c9.26,0,16.61,0.84,22.05,2.53
		c5.38,1.56,10.07,4.44,14.07,8.63c7.56,7.76,11.35,17.76,11.35,30.02C881.23,753.76,869.06,767.96,844.74,773.9z M824.29,710.11
		l-5.62,46.53h9.84c7.26,0,12.67-0.68,16.23-2.06c3.82-1.38,7-3.72,9.57-7.04c3.5-4.63,5.25-10.07,5.25-16.32
		c0-7.32-2.11-12.66-6.33-16.04s-10.86-5.07-19.94-5.07H824.29z"/>
	<path d="M1018.34,690.13l-2.44,19.98h-53.18l-4.6,37.52h53.19l-2.26,18.57h-53.19l-6,48.78h53.18l-2.53,19.98h-74.58l17.82-144.84
		H1018.34z"/>
	<path d="M1099.36,695.19L1069.72,745l-11.54-6.28l26.74-51.5L1099.36,695.19z"/>
	<path d="M1229.06,708.61l-14.36,13.7c-6.82-10-14.63-15.01-23.45-15.01c-6.38,0-11.67,1.97-15.85,5.91s-6.28,8.88-6.28,14.82
		c0,4.75,1.44,8.85,4.32,12.29c1.44,1.63,3.55,3.47,6.33,5.54s6.27,4.35,10.46,6.85c12.44,7.26,20.76,13.82,24.95,19.7
		c4.25,5.94,6.38,13.73,6.38,23.36c0,12.5-4.12,22.64-12.38,30.39c-8.12,7.76-18.85,11.64-32.17,11.64
		c-10.76,0-19.86-2.31-27.3-6.94c-3.75-2.31-7.26-5.33-10.51-9.05s-6.38-8.24-9.38-13.55l16.32-11.07
		c4.44,7.82,8.79,13.19,13.04,16.13c4.26,2.94,9.79,4.41,16.61,4.41c7.57,0,13.49-2,17.78-6c4.28-4,6.43-9.69,6.43-17.08
		c0-5.06-1.56-9.35-4.69-12.85c-1.57-1.81-3.9-3.85-6.99-6.1s-7.02-4.78-11.77-7.6c-10.88-6.44-18.48-12.57-22.8-18.38
		c-4.13-5.82-6.19-13.1-6.19-21.86c0-11.69,4.07-21.39,12.2-29.08c8.13-7.75,18.39-11.63,30.77-11.63c8.07,0,14.94,1.63,20.63,4.88
		C1216.96,695.26,1222.93,700.79,1229.06,708.61z"/>
	<path d="M239.05,906.98l11.91,158.54h-20.45l-6.47-92.31l-56.09,102.44L136.89,973.2L108,1065.51H86.05l50.09-155.06l36.68,118.38
		L239.05,906.98z"/>
	<path d="M355.48,1031.46l-17.64,34.05h-23.35l80.11-155.16l50,155.16h-22.42l-10.51-34.05H355.48z M364.76,1012.88h40.9
		l-15.58-51.5L364.76,1012.88z"/>
	<path d="M566.27,1004.44l36.4,61.07h-22.7l-34.34-59.57h-7.79l-7.31,59.57h-21.48l17.83-144.84h28.42c9.25,0,16.6,0.84,22.05,2.53
		c5.38,1.56,10.07,4.44,14.07,8.63c7.57,7.75,11.35,17.76,11.35,30.02C602.76,984.31,590.6,998.5,566.27,1004.44z M545.82,940.65
		l-5.63,46.53h9.85c7.26,0,12.67-0.69,16.23-2.07c3.81-1.37,7-3.72,9.57-7.04c3.5-4.62,5.25-10.06,5.25-16.32
		c0-7.32-2.11-12.67-6.33-16.04c-4.22-3.37-10.86-5.06-19.93-5.06H545.82z"/>
	<path d="M710.18,920.67l-7.5,61.54l58.54-61.54h27.11l-67.54,67.35l60.79,77.49h-25.89l-54.59-70.64l-8.63,70.64h-21.48
		l17.82-144.84H710.18z"/>
	<path d="M940.3,920.67l-2.44,19.98h-53.19l-4.59,37.52h53.19l-2.25,18.57h-53.19l-6.01,48.78h53.19l-2.53,19.98H847.9l17.82-144.84
		H940.3z"/>
	<path d="M1053.07,940.65l-15.39,124.86h-21.48l15.38-124.86h-34.61l2.44-19.98h89.21l-2.44,19.98H1053.07z"/>
	<path class="st0" d="M1171.74,932.4c15.39,13.95,23.08,25.27,23.08,33.96c0,2.31-0.79,4.89-2.35,7.74s-5.19,7.08-10.88,12.71
		c-4.38,4.25-7.11,7.26-8.21,9.01c-1.1,1.75-1.65,3.28-1.65,4.59c0,1.25,0.55,2.75,1.65,4.5c1.09,1.75,3.83,4.79,8.21,9.1
		c5.69,5.62,9.32,9.85,10.88,12.66c1.56,2.82,2.35,5.38,2.35,7.7s-0.79,4.89-2.35,7.74s-5.19,7.05-10.88,12.62
		c-4.38,4.31-7.11,7.35-8.21,9.1c-1.1,1.75-1.65,3.29-1.65,4.6c0,6,6.88,15.1,20.64,27.29l-6.76,6.66
		c-15.39-13.95-23.08-25.26-23.08-33.96c0-2.31,0.8-4.89,2.39-7.74c1.59-2.85,5.23-7.08,10.93-12.71c4.32-4.25,7.02-7.25,8.12-9
		c1.09-1.75,1.64-3.28,1.64-4.59c0-1.25-0.55-2.75-1.64-4.51c-1.09-1.75-3.8-4.78-8.12-9.1c-5.69-5.63-9.34-9.85-10.93-12.67
		c-1.6-2.81-2.39-5.38-2.39-7.69s0.8-4.89,2.39-7.74c1.59-2.85,5.23-7.08,10.93-12.71c4.32-4.25,7.02-7.26,8.12-9.01
		c1.09-1.75,1.64-3.28,1.64-4.59c0-6.01-6.85-15.1-20.55-27.3L1171.74,932.4z"/>
</g>
<g>
	<path class="st1" d="M119.9,707.09c15.38,13.95,23.08,25.27,23.08,33.96c0,2.31-0.79,4.89-2.35,7.74s-5.19,7.08-10.88,12.71
		c-4.38,4.25-7.11,7.26-8.21,9c-1.09,1.75-1.64,3.29-1.64,4.6c0,1.25,0.55,2.75,1.64,4.5s3.83,4.79,8.21,9.1
		c5.69,5.63,9.32,9.85,10.88,12.67s2.35,5.38,2.35,7.69c0,2.31-0.79,4.9-2.35,7.74c-1.56,2.85-5.19,7.06-10.88,12.62
		c-4.38,4.32-7.11,7.35-8.21,9.1s-1.64,3.28-1.64,4.59c0,6.01,6.88,15.1,20.63,27.3l-6.75,6.66
		c-15.39-13.95-23.08-25.27-23.08-33.96c0-2.31,0.8-4.89,2.39-7.74c1.59-2.84,5.23-7.08,10.93-12.71c4.32-4.25,7.02-7.26,8.12-9
		c1.09-1.75,1.64-3.29,1.64-4.6c0-1.25-0.55-2.75-1.64-4.5c-1.09-1.75-3.8-4.79-8.12-9.1c-5.69-5.63-9.34-9.85-10.93-12.67
		c-1.6-2.81-2.39-5.38-2.39-7.69s0.8-4.89,2.39-7.74c1.59-2.85,5.23-7.08,10.93-12.71c4.32-4.25,7.02-7.25,8.12-9
		c1.09-1.75,1.64-3.28,1.64-4.59c0-6-6.85-15.1-20.54-27.3L119.9,707.09z"/>
	<path class="st1" d="M301.71,695.37l-2.44,19.98h-50.09l-4.6,37.33h50.09l-2.25,18.57h-50.19l-8.44,68.95h-21.48l17.92-144.84
		H301.71z"/>
	<path class="st1" d="M457.02,695.37l-10.51,85.74c-2.38,18.89-6.82,32.71-13.32,41.46c-10.44,13.63-24.95,20.45-43.53,20.45
		c-14.89,0-27.3-4.5-37.24-13.51c-9.88-9.13-14.82-20.45-14.82-33.96c0-2.88,0.11-5.91,0.33-9.1c0.21-3.19,0.54-6.57,0.98-10.13
		l9.95-80.95h21.39l-10.22,83.68c-0.31,2.5-0.55,4.81-0.7,6.94c-0.16,2.13-0.23,4.1-0.23,5.91c0,9.63,2.69,17.23,8.07,22.79
		c5.44,5.57,12.82,8.35,22.14,8.35c10.88,0,19.14-3.5,24.77-10.51c5.63-7.07,9.44-18.54,11.45-34.43l10.13-82.73H457.02z"/>
	<path class="st1" d="M553.52,715.35L538.13,840.2h-21.48l15.38-124.86h-34.61l2.44-19.98h89.21l-2.44,19.98H553.52z"/>
	<path class="st1" d="M740.07,695.37l-10.5,85.74c-2.38,18.89-6.82,32.71-13.33,41.46c-10.44,13.63-24.95,20.45-43.53,20.45
		c-14.89,0-27.3-4.5-37.24-13.51c-9.88-9.13-14.82-20.45-14.82-33.96c0-2.88,0.11-5.91,0.33-9.1c0.21-3.19,0.54-6.57,0.98-10.13
		l9.95-80.95h21.39l-10.22,83.68c-0.31,2.5-0.55,4.81-0.7,6.94c-0.16,2.13-0.23,4.1-0.23,5.91c0,9.63,2.69,17.23,8.07,22.79
		c5.44,5.57,12.82,8.35,22.14,8.35c10.88,0,19.14-3.5,24.77-10.51c5.62-7.07,9.44-18.54,11.45-34.43l10.13-82.73H740.07z"/>
	<path class="st1" d="M838.25,779.13l36.4,61.07h-22.71l-34.34-59.57h-7.78l-7.31,59.57h-21.48l17.82-144.84h28.43
		c9.25,0,16.6,0.84,22.04,2.53c5.38,1.56,10.07,4.44,14.07,8.63c7.57,7.76,11.35,17.76,11.35,30.02
		C874.74,759,862.58,773.19,838.25,779.13z M817.8,715.35l-5.63,46.53h9.85c7.25,0,12.66-0.69,16.23-2.07
		c3.81-1.37,7.01-3.72,9.57-7.04c3.5-4.62,5.25-10.07,5.25-16.32c0-7.31-2.11-12.66-6.33-16.04s-10.87-5.07-19.93-5.07H817.8z"/>
	<path class="st1" d="M1011.85,695.37l-2.44,19.98h-53.19l-4.59,37.52h53.19l-2.25,18.57h-53.19l-6.01,48.78h53.19l-2.53,19.98
		h-74.58l17.82-144.84H1011.85z"/>
	<path class="st1" d="M1092.87,700.43l-29.64,49.81l-11.54-6.29l26.73-51.5L1092.87,700.43z"/>
	<path class="st1" d="M1222.57,713.84l-14.35,13.7c-6.82-10-14.63-15.01-23.45-15.01c-6.38,0-11.66,1.97-15.85,5.91
		c-4.19,3.94-6.29,8.88-6.29,14.82c0,4.75,1.44,8.85,4.32,12.29c1.44,1.63,3.54,3.47,6.33,5.53c2.78,2.07,6.27,4.35,10.46,6.85
		c12.45,7.26,20.76,13.82,24.95,19.7c4.25,5.94,6.38,13.73,6.38,23.36c0,12.51-4.13,22.64-12.38,30.4
		c-8.13,7.75-18.86,11.63-32.18,11.63c-10.76,0-19.85-2.31-27.29-6.94c-3.75-2.31-7.26-5.33-10.51-9.05
		c-3.25-3.72-6.38-8.24-9.38-13.55l16.32-11.07c4.44,7.82,8.78,13.2,13.04,16.14c4.25,2.94,9.79,4.41,16.6,4.41
		c7.57,0,13.5-2,17.78-6.01c4.28-4,6.43-9.69,6.43-17.07c0-5.07-1.57-9.35-4.69-12.85c-1.56-1.82-3.89-3.85-6.99-6.1
		s-7.02-4.79-11.77-7.6c-10.88-6.44-18.48-12.57-22.79-18.39c-4.13-5.82-6.19-13.1-6.19-21.86c0-11.69,4.06-21.39,12.19-29.08
		c8.13-7.75,18.38-11.63,30.77-11.63c8.07,0,14.95,1.63,20.64,4.88C1210.47,700.49,1216.44,706.03,1222.57,713.84z"/>
	<path class="st1" d="M232.56,912.21l11.91,158.54h-20.45l-6.47-92.31l-56.09,102.44L130.4,978.44l-28.89,92.31H79.56l50.09-155.06
		l36.68,118.38L232.56,912.21z"/>
	<path class="st1" d="M348.99,1036.69l-17.64,34.05H308l80.11-155.16l50,155.16h-22.42l-10.51-34.05H348.99z M358.27,1018.12h40.9
		l-15.58-51.5L358.27,1018.12z"/>
	<path class="st1" d="M559.78,1009.68l36.4,61.07h-22.7l-34.34-59.57h-7.79l-7.31,59.57h-21.48l17.83-144.84h28.42
		c9.25,0,16.6,0.84,22.05,2.53c5.38,1.56,10.07,4.44,14.07,8.63c7.57,7.75,11.35,17.76,11.35,30.02
		C596.27,989.54,584.11,1003.73,559.78,1009.68z M539.33,945.89l-5.63,46.53h9.85c7.26,0,12.67-0.69,16.23-2.07
		c3.81-1.37,7-3.72,9.57-7.04c3.5-4.62,5.25-10.06,5.25-16.32c0-7.32-2.11-12.67-6.33-16.04c-4.22-3.37-10.86-5.06-19.93-5.06
		H539.33z"/>
	<path class="st1" d="M703.69,925.91l-7.5,61.54l58.54-61.54h27.11l-67.54,67.35l60.79,77.49h-25.89l-54.6-70.64l-8.63,70.64h-21.48
		l17.82-144.84H703.69z"/>
	<path class="st1" d="M933.81,925.91l-2.44,19.98h-53.18l-4.6,37.52h53.19l-2.26,18.57h-53.19l-6,48.78h53.18l-2.53,19.98h-74.58
		l17.82-144.84H933.81z"/>
	<path class="st1" d="M1046.58,945.89l-15.39,124.86h-21.48l15.39-124.86h-34.62l2.44-19.98h89.21l-2.44,19.98H1046.58z"/>
	<path class="st1" d="M1165.26,937.63c15.38,13.95,23.08,25.27,23.08,33.96c0,2.31-0.78,4.89-2.34,7.74
		c-1.57,2.85-5.2,7.08-10.88,12.71c-4.38,4.25-7.11,7.26-8.21,9.01c-1.09,1.75-1.64,3.28-1.64,4.59c0,1.25,0.55,2.75,1.64,4.5
		c1.09,1.75,3.83,4.79,8.21,9.1c5.69,5.62,9.32,9.85,10.88,12.66c1.56,2.82,2.34,5.38,2.34,7.7s-0.78,4.89-2.34,7.74
		c-1.57,2.85-5.2,7.05-10.88,12.62c-4.38,4.31-7.11,7.35-8.21,9.1c-1.09,1.75-1.64,3.29-1.64,4.6c0,6,6.88,15.1,20.63,27.29
		l-6.75,6.66c-15.39-13.95-23.08-25.26-23.08-33.96c0-2.31,0.8-4.89,2.39-7.74s5.24-7.08,10.93-12.71c4.31-4.25,7.02-7.25,8.12-9
		c1.09-1.75,1.64-3.28,1.64-4.59c0-1.25-0.55-2.75-1.64-4.51c-1.1-1.75-3.8-4.78-8.12-9.1c-5.69-5.63-9.33-9.85-10.93-12.67
		c-1.6-2.81-2.39-5.38-2.39-7.69s0.8-4.89,2.39-7.74s5.24-7.08,10.93-12.71c4.31-4.25,7.02-7.26,8.12-9.01
		c1.09-1.75,1.64-3.28,1.64-4.59c0-6.01-6.85-15.1-20.54-27.3L1165.26,937.63z"/>
</g>
</svg>
