<?xml version="1.0" encoding="utf-8"?>
<!-- Generator: Adobe Illustrator 23.0.2, SVG Export Plug-In . SVG Version: 6.00 Build 0)  -->
<svg version="1.1" id="Layer_1" xmlns="http://www.w3.org/2000/svg" xmlns:xlink="http://www.w3.org/1999/xlink" x="0px" y="0px"
	 viewBox="0 0 7094.22 7750.44" style="enable-background:new 0 0 7094.22 7750.44;" xml:space="preserve">
<style type="text/css">
	.st0{fill:#F9F07F;}
	.st1{stroke:#000000;stroke-width:0.5;stroke-miterlimit:10;}
	.st2{fill:#6ACBDF;}
</style>
<rect class="st0" width="7094.22" height="7750.44"/>
<g>
	<g>
		<path d="M801.9,2858.55c79.98,72.52,120,131.38,120,176.57c0,12.04-4.09,25.47-12.21,40.24c-8.12,14.8-26.99,36.84-56.57,66.09
			c-22.78,22.14-36.99,37.73-42.68,46.85s-8.53,17.06-8.53,23.89c0,6.53,2.84,14.32,8.53,23.41c5.69,9.12,19.91,24.88,42.68,47.33
			c29.58,29.28,48.45,51.21,56.57,65.86c8.12,14.62,12.21,27.96,12.21,39.99s-4.09,25.44-12.21,40.24s-26.99,36.66-56.57,65.61
			c-22.78,22.45-36.99,38.21-42.68,47.3c-5.69,9.12-8.53,17.09-8.53,23.92c0,31.21,35.75,78.53,107.3,141.93l-35.12,34.66
			c-80.01-72.54-120-131.4-120-176.59c0-12.04,4.14-25.44,12.44-40.24c8.28-14.8,27.22-36.84,56.82-66.09
			c22.45-22.12,36.51-37.73,42.2-46.85c5.69-9.09,8.53-17.06,8.53-23.89c0-6.5-2.84-14.32-8.53-23.41
			c-5.69-9.12-19.75-24.88-42.2-47.33c-29.61-29.28-48.55-51.21-56.82-65.84c-8.3-14.65-12.44-27.98-12.44-40.02
			s4.14-25.44,12.44-40.24c8.28-14.78,27.22-36.82,56.82-66.09c22.45-22.12,36.51-37.73,42.2-46.82c5.69-9.12,8.53-17.09,8.53-23.92
			c0-31.21-35.6-78.52-106.82-141.93L801.9,2858.55z"/>
		<path d="M1747.32,2797.57l-12.67,103.9h-260.48l-23.92,194.15h260.48l-11.71,96.56h-260.96l-43.9,358.54h-111.72l93.18-753.15
			H1747.32z"/>
		<path d="M2554.95,2797.57l-54.64,445.85c-12.37,98.21-35.45,170.07-69.27,215.59c-54.31,70.92-129.75,106.36-226.33,106.36
			c-77.42,0-141.96-23.44-193.65-70.26c-51.39-47.48-77.09-106.34-77.09-176.59c0-14.96,0.56-30.72,1.73-47.3
			c1.12-16.58,2.82-34.15,5.1-52.69l51.72-420.96h111.21l-53.17,435.11c-1.62,13-2.84,25.04-3.66,36.11
			c-0.81,11.04-1.22,21.3-1.22,30.72c0,50.1,13.96,89.6,41.95,118.55c28.29,28.95,66.65,43.39,115.12,43.39
			c56.6,0,99.51-18.21,128.78-54.62c29.28-36.74,49.11-96.43,59.52-179.03l52.69-430.23H2554.95z"/>
		<path d="M3056.72,2901.47l-80.01,649.25h-111.69l79.98-649.25H2765l12.7-103.9h463.89l-12.67,103.9H3056.72z"/>
		<path d="M4026.76,2797.57l-54.64,445.85c-12.34,98.21-35.45,170.07-69.27,215.59c-54.31,70.92-129.75,106.36-226.33,106.36
			c-77.39,0-141.96-23.44-193.65-70.26c-51.39-47.48-77.09-106.34-77.09-176.59c0-14.96,0.56-30.72,1.73-47.3
			c1.12-16.58,2.82-34.15,5.1-52.69l51.72-420.96h111.21l-53.17,435.11c-1.62,13-2.84,25.04-3.66,36.11
			c-0.81,11.04-1.22,21.3-1.22,30.72c0,50.1,13.96,89.6,41.95,118.55c28.29,28.95,66.65,43.39,115.12,43.39
			c56.6,0,99.51-18.21,128.78-54.62c29.28-36.74,49.11-96.43,59.52-179.03l52.69-430.23H4026.76z"/>
		<path d="M4537.32,3233.16l189.26,317.56h-118.04l-178.52-309.74h-40.5l-38.06,309.74h-111.69l92.68-753.15h147.8
			c48.14,0,86.35,4.38,114.64,13.17c27.96,8.14,52.36,23.09,73.18,44.88c39.33,40.33,59.03,92.36,59.03,156.1
			C4727.09,3128.45,4663.82,3202.28,4537.32,3233.16z M4430.98,2901.47l-29.25,241.93h51.19c37.73,0,65.86-3.55,84.4-10.71
			c19.86-7.16,36.41-19.35,49.77-36.59c18.21-24.07,27.32-52.36,27.32-84.88c0-38.05-10.97-65.85-32.93-83.41
			s-56.49-26.34-103.67-26.34H4430.98z"/>
		<path d="M5440.06,2797.57l-12.7,103.9h-276.55l-23.92,195.11h276.61l-11.73,96.59h-276.58l-31.21,253.65h276.55l-13.15,103.9
			h-387.82l92.68-753.15H5440.06z"/>
		<path d="M5861.34,2823.9l-154.12,259.02l-60.02-32.68l139.04-267.81L5861.34,2823.9z"/>
		<path d="M6535.82,2893.66l-74.65,71.22c-35.45-52.03-76.1-78.05-121.95-78.05c-33.19,0-60.66,10.25-82.44,30.74
			s-32.68,46.19-32.68,77.07c0,24.72,7.49,46.01,22.45,63.88c7.49,8.48,18.46,18.05,32.93,28.79s32.6,22.6,54.39,35.6
			c64.7,37.73,107.96,71.88,129.75,102.45c22.12,30.9,33.16,71.37,33.16,121.47c0,65.03-21.43,117.71-64.39,158.03
			c-42.25,40.35-98.03,60.51-167.3,60.51c-55.94,0-103.26-12.04-141.96-36.11c-19.5-12.04-37.73-27.73-54.64-47.07
			s-33.16-42.83-48.75-70.48l84.86-57.56c23.11,40.65,45.7,68.61,67.79,83.89c22.14,15.29,50.91,22.93,86.35,22.93
			c39.36,0,70.15-10.38,92.45-31.21c22.27-20.82,33.41-50.4,33.41-88.79c0-26.33-8.12-48.6-24.38-66.83
			c-8.15-9.42-20.26-20.01-36.36-31.71s-36.51-24.86-61.22-39.51c-56.6-33.49-96.1-65.36-118.55-95.6
			c-21.46-30.27-32.2-68.12-32.2-113.66c0-60.81,21.15-111.22,63.43-151.21c42.28-40.32,95.62-60.49,160.01-60.49
			c41.95,0,77.7,8.46,107.3,25.37C6472.87,2824.23,6503.92,2853.01,6535.82,2893.66z"/>
		<path d="M1387.74,3925.18l61.95,824.38h-106.34l-33.67-480.01L1018,4802.25l-161.48-532.7l-150.24,480.01H592.15l260.48-806.33
			l190.73,615.6L1387.74,3925.18z"/>
		<path d="M1993.15,4572.49l-91.71,177.07H1780l416.58-806.84l260,806.84h-116.59l-54.64-177.07H1993.15z M2041.45,4475.9h212.7
			l-81-267.79L2041.45,4475.9z"/>
		<path d="M3089.29,4432l189.26,317.56h-118.04l-178.55-309.77h-40.5l-38.04,309.77h-111.72l92.7-753.16h147.8
			c48.12,0,86.33,4.39,114.64,13.18c27.96,8.12,52.36,23.08,73.15,44.87c39.36,40.32,59.03,92.37,59.03,156.1
			C3279.04,4327.29,3215.79,4401.1,3089.29,4432z M2982.96,4100.3l-29.28,241.95h51.21c37.73,0,65.86-3.58,84.4-10.74
			c19.83-7.13,36.41-19.32,49.74-36.59c18.21-24.04,27.32-52.33,27.32-84.86c0-38.06-10.97-65.86-32.93-83.43
			c-21.94-17.54-56.49-26.33-103.64-26.33H2982.96z"/>
		<path d="M3837.63,3996.4l-39.03,320l304.38-320h140.97l-351.2,350.24l316.11,402.92h-134.65l-283.89-367.33l-44.89,367.33h-111.72
			l92.68-753.16H3837.63z"/>
		<path d="M5034.24,3996.4l-12.67,103.9h-276.61l-23.89,195.13h276.58l-11.71,96.59h-276.58l-31.23,253.65h276.61l-13.18,103.9
			h-387.79l92.68-753.16H5034.24z"/>
		<path d="M5620.64,4100.3l-80.01,649.26h-111.69l79.98-649.26h-179.99l12.67-103.9h463.91l-12.67,103.9H5620.64z"/>
		<path class="st1" d="M6237.73,4057.36c80.03,72.54,120.02,131.4,120.02,176.59c0,12.04-4.09,25.44-12.21,40.24
			s-26.99,36.82-56.57,66.09c-22.78,22.12-36.99,37.73-42.68,46.85c-5.71,9.09-8.56,17.06-8.56,23.89c0,6.5,2.84,14.32,8.56,23.41
			c5.69,9.12,19.91,24.88,42.68,47.33c29.58,29.25,48.45,51.21,56.57,65.84c8.12,14.65,12.21,27.98,12.21,40.02
			s-4.09,25.44-12.21,40.24s-26.99,36.66-56.57,65.61c-22.78,22.42-36.99,38.21-42.68,47.3c-5.71,9.12-8.56,17.09-8.56,23.92
			c0,31.21,35.8,78.53,107.35,141.93l-35.14,34.63c-80.01-72.52-120-131.37-120-176.57c0-12.04,4.14-25.44,12.44-40.24
			c8.28-14.8,27.22-36.84,56.82-66.12c22.45-22.09,36.51-37.71,42.2-46.82c5.69-9.09,8.53-17.06,8.53-23.89
			c0-6.5-2.84-14.32-8.53-23.44c-5.69-9.09-19.75-24.86-42.2-47.3c-29.61-29.28-48.55-51.21-56.82-65.86
			c-8.3-14.62-12.44-27.96-12.44-39.99s4.14-25.44,12.44-40.24c8.28-14.8,27.22-36.84,56.82-66.09
			c22.45-22.12,36.51-37.73,42.2-46.85c5.69-9.09,8.53-17.06,8.53-23.89c0-31.23-35.6-78.53-106.84-141.96L6237.73,4057.36z"/>
	</g>
	<path class="st2" d="M768.16,2885.78c79.98,72.52,120,131.38,120,176.58c0,12.04-4.09,25.44-12.21,40.24s-26.99,36.82-56.57,66.09
		c-22.78,22.12-36.99,37.73-42.68,46.82c-5.69,9.12-8.53,17.09-8.53,23.92c0,6.5,2.84,14.29,8.53,23.41s19.91,24.88,42.68,47.3
		c29.58,29.28,48.45,51.24,56.57,65.86s12.21,27.98,12.21,39.99c0,12.04-4.09,25.47-12.21,40.24c-8.12,14.8-26.99,36.69-56.57,65.61
		c-22.78,22.45-36.99,38.24-42.68,47.33s-8.53,17.06-8.53,23.89c0,31.23,35.75,78.53,107.3,141.96l-35.12,34.63
		c-80.01-72.52-120-131.4-120-176.59c0-12.04,4.14-25.44,12.44-40.24c8.28-14.78,27.22-36.82,56.82-66.09
		c22.45-22.12,36.51-37.73,42.2-46.82c5.69-9.12,8.53-17.09,8.53-23.92c0-6.5-2.84-14.29-8.53-23.41
		c-5.69-9.09-19.75-24.88-42.2-47.3c-29.61-29.28-48.55-51.24-56.82-65.86c-8.3-14.62-12.44-27.96-12.44-39.99
		s4.14-25.44,12.44-40.24c8.28-14.8,27.22-36.84,56.82-66.12c22.45-22.09,36.51-37.71,42.2-46.82c5.69-9.09,8.53-17.06,8.53-23.89
		c0-31.22-35.6-78.53-106.82-141.95L768.16,2885.78z"/>
	<path class="st2" d="M1713.58,2824.8l-12.67,103.9h-260.48l-23.92,194.14h260.48l-11.71,96.59h-260.96l-43.9,358.54H1248.7
		l93.18-753.16H1713.58z"/>
	<path class="st2" d="M2521.2,2824.8l-54.64,445.83c-12.37,98.21-35.45,170.09-69.27,215.62
		c-54.31,70.89-129.75,106.34-226.33,106.34c-77.42,0-141.96-23.41-193.65-70.23c-51.39-47.48-77.09-106.36-77.09-176.59
		c0-14.96,0.56-30.72,1.73-47.33c1.12-16.58,2.82-34.15,5.1-52.69l51.72-420.95h111.21l-53.17,435.12
		c-1.62,13-2.84,25.04-3.66,36.08c-0.81,11.07-1.22,21.3-1.22,30.75c0,50.07,13.96,89.58,41.95,118.52
		c28.29,28.95,66.65,43.42,115.12,43.42c56.6,0,99.51-18.21,128.78-54.64c29.28-36.74,49.11-96.41,59.52-179.03l52.69-430.22H2521.2
		z"/>
	<path class="st2" d="M3022.97,2928.7l-80.01,649.26h-111.69l79.98-649.26h-179.99l12.7-103.9h463.89l-12.67,103.9H3022.97z"/>
	<path class="st2" d="M3993.02,2824.8l-54.62,445.83c-12.39,98.21-35.47,170.09-69.29,215.62
		c-54.31,70.89-129.75,106.34-226.33,106.34c-77.42,0-141.96-23.41-193.65-70.23c-51.39-47.48-77.09-106.36-77.09-176.59
		c0-14.96,0.56-30.72,1.73-47.33c1.12-16.58,2.82-34.15,5.1-52.69l51.72-420.95h111.21l-53.17,435.12
		c-1.62,13-2.84,25.04-3.66,36.08c-0.81,11.07-1.22,21.3-1.22,30.75c0,50.07,13.96,89.58,41.95,118.52
		c28.29,28.95,66.68,43.42,115.12,43.42c56.57,0,99.53-18.21,128.78-54.64c29.25-36.74,49.11-96.41,59.52-179.03l52.66-430.22
		H3993.02z"/>
	<path class="st2" d="M4503.58,3260.4l189.29,317.56H4574.8l-178.55-309.77h-40.47l-38.04,309.77h-111.72l92.68-753.16h147.82
		c48.12,0,86.33,4.38,114.61,13.17c27.98,8.14,52.36,23.09,73.18,44.88c39.36,40.33,59.01,92.36,59.01,156.1
		C4693.32,3155.69,4630.1,3229.5,4503.58,3260.4z M4397.24,2928.7l-29.28,241.95h51.24c37.71,0,65.84-3.58,84.37-10.74
		c19.83-7.13,36.44-19.35,49.77-36.59c18.21-24.04,27.29-52.36,27.29-84.88c0-38.04-10.97-65.84-32.91-83.4
		s-56.52-26.34-103.64-26.34H4397.24z"/>
	<path class="st2" d="M5406.31,2824.8l-12.67,103.9h-276.61l-23.89,195.1h276.58l-11.71,96.59h-276.58l-31.23,253.68h276.61
		l-13.18,103.9h-387.79l92.68-753.16H5406.31z"/>
	<path class="st2" d="M5827.59,2851.13l-154.15,259.04l-60-32.7l139.01-267.79L5827.59,2851.13z"/>
	<path class="st2" d="M6502.05,2920.89l-74.62,71.22c-35.45-52.03-76.1-78.05-121.95-78.05c-33.16,0-60.63,10.25-82.42,30.74
		c-21.81,20.49-32.7,46.19-32.7,77.07c0,24.72,7.46,46.02,22.45,63.9c7.46,8.46,18.43,18.05,32.91,28.77
		c14.47,10.74,32.6,22.62,54.41,35.62c64.72,37.73,107.96,71.88,129.75,102.43c22.12,30.9,33.19,71.4,33.19,121.47
		c0,65.05-21.48,117.74-64.39,158.06c-42.3,40.32-98.06,60.48-167.32,60.48c-55.94,0-103.24-12.04-141.93-36.11
		c-19.53-12.01-37.73-27.7-54.64-47.07c-16.91-19.32-33.19-42.83-48.8-70.48l84.88-57.56c23.08,40.68,45.68,68.63,67.82,83.92
		c22.09,15.29,50.88,22.93,86.33,22.93c39.36,0,70.18-10.41,92.45-31.23c22.27-20.79,33.41-50.4,33.41-88.77
		c0-26.36-8.15-48.62-24.4-66.83c-8.12-9.45-20.24-20.01-36.33-31.71s-36.51-24.88-61.22-39.51
		c-56.57-33.49-96.1-65.38-118.52-95.62c-21.48-30.24-32.2-68.12-32.2-113.65c0-60.81,21.12-111.22,63.4-151.21
		c42.28-40.32,95.6-60.49,159.99-60.49c41.95,0,77.75,8.46,107.33,25.37C6439.13,2851.46,6470.18,2880.24,6502.05,2920.89z"/>
	<path class="st2" d="M1354,3952.4l61.95,824.38h-106.34l-33.67-480.01l-291.69,532.7l-161.48-532.7l-150.24,480.01H558.41
		l260.48-806.33l190.73,615.6L1354,3952.4z"/>
	<path class="st2" d="M1959.41,4599.71l-91.71,177.07h-121.44l416.58-806.84l260,806.84h-116.59l-54.64-177.07H1959.41z
		 M2007.7,4503.12h212.7l-81-267.79L2007.7,4503.12z"/>
	<path class="st2" d="M3055.55,4459.22l189.26,317.56h-118.04l-178.55-309.77h-40.5l-38.04,309.77h-111.72l92.7-753.16h147.8
		c48.12,0,86.33,4.39,114.64,13.18c27.96,8.12,52.36,23.08,73.15,44.87c39.36,40.32,59.03,92.37,59.03,156.1
		C3245.29,4354.51,3182.04,4428.32,3055.55,4459.22z M2949.21,4127.52l-29.28,241.95h51.21c37.73,0,65.86-3.58,84.4-10.74
		c19.83-7.13,36.41-19.32,49.74-36.59c18.21-24.04,27.32-52.33,27.32-84.86c0-38.06-10.97-65.86-32.93-83.43
		c-21.94-17.54-56.49-26.33-103.64-26.33H2949.21z"/>
	<path class="st2" d="M3803.89,4023.62l-39.03,320l304.41-320h140.97l-351.23,350.24l316.09,402.92h-134.62l-283.92-367.33
		l-44.87,367.33H3600l92.68-753.16H3803.89z"/>
	<path class="st2" d="M5000.5,4023.62l-12.7,103.9h-276.55l-23.92,195.13h276.61l-11.73,96.59h-276.58l-31.21,253.65h276.55
		l-13.15,103.9H4520l92.68-753.16H5000.5z"/>
	<path class="st2" d="M5586.89,4127.52l-80.01,649.26h-111.72l80.03-649.26h-180.02l12.7-103.9h463.89l-12.7,103.9H5586.89z"/>
	<path class="st2" d="M6204.01,4084.58c79.98,72.54,120,131.4,120,176.59c0,12.04-4.06,25.44-12.19,40.24
		c-8.15,14.8-27.02,36.82-56.6,66.09c-22.78,22.12-36.99,37.73-42.68,46.85c-5.69,9.09-8.53,17.06-8.53,23.89
		c0,6.5,2.84,14.32,8.53,23.41c5.69,9.12,19.91,24.88,42.68,47.33c29.58,29.25,48.45,51.21,56.6,65.84
		c8.12,14.65,12.19,27.98,12.19,40.02s-4.06,25.44-12.19,40.24c-8.15,14.8-27.02,36.66-56.6,65.61
		c-22.78,22.42-36.99,38.21-42.68,47.3c-5.69,9.12-8.53,17.09-8.53,23.92c0,31.21,35.75,78.53,107.3,141.93l-35.12,34.63
		c-80.01-72.52-120-131.37-120-176.57c0-12.04,4.14-25.44,12.44-40.24s27.24-36.84,56.82-66.12c22.42-22.09,36.49-37.71,42.2-46.82
		c5.66-9.09,8.53-17.06,8.53-23.89c0-6.5-2.87-14.32-8.53-23.44c-5.71-9.09-19.78-24.86-42.2-47.3
		c-29.58-29.28-48.52-51.21-56.82-65.86c-8.3-14.62-12.44-27.96-12.44-39.99s4.14-25.44,12.44-40.24s27.24-36.84,56.82-66.09
		c22.42-22.12,36.49-37.73,42.2-46.85c5.66-9.09,8.53-17.06,8.53-23.89c0-31.23-35.62-78.53-106.82-141.96L6204.01,4084.58z"/>
</g>
</svg>
