<svg xmlns="http://www.w3.org/2000/svg" xmlns:xlink="http://www.w3.org/1999/xlink" width="100" height="100" viewBox="0 0 100 100"><g><circle stroke="none" fill="#FFF668" r="48%" cx="50%" cy="50%"></circle><g transform="translate(50 50) scale(0.69 0.69) rotate(0) translate(-50 -50)" style="fill:#66D6FF"><svg fill="#66D6FF" xmlns="http://www.w3.org/2000/svg" xmlns:xlink="http://www.w3.org/1999/xlink" version="1.1" x="0px" y="0px" viewBox="0 0 100 100" enable-background="new 0 0 100 100" xml:space="preserve"><g><path d="M55.771,59.635v-3.859v-3.83h3.859v-3.86v-3.86v-3.83v-3.86v-3.83v-3.86h-3.859v-3.83v-3.86h-3.83h-3.86v-3.83h-3.85h-3.84   h-3.85H32.7h-3.85v3.83h-3.84h-3.85v3.86v3.83h-3.84v3.86v3.83v3.86v3.83v3.86v3.86h3.84v3.83v3.859h3.85h3.84v3.83h3.85h3.84h3.85   h3.84h3.85v-3.83h3.86H55.771z M48.08,55.775h-3.85v3.859h-3.84h-3.85H32.7v-3.859h-3.85h-3.84v-3.83v-3.86h-3.85v-3.86v-3.83   v-3.86v-3.83h3.85v-3.86v-3.83h3.84h3.85v-3.86h3.84h3.85h3.84v3.86h3.85h3.86v3.83v3.86h3.83v3.83v3.86v3.83v3.86h-3.83v3.86v3.83   H48.08z"></path><path d="M90.39,78.846v-3.83h-3.85v-3.86H82.7v-3.83h-3.85v-3.86h-3.84v-3.83H71.16v-3.859v-3.83v-3.86v-3.86v-3.83v-3.86v-3.83   v-3.86v-3.83h-3.84v-3.86v-3.83H63.47v-3.86h-3.84h-3.859v-3.83h-3.83v-3.86h-3.86h-3.85h-3.84h-3.85H32.7h-3.85h-3.84v3.86h-3.85   v3.83h-3.84h-3.85v3.86H9.63v3.83v3.86H5.77v3.83v3.86v3.83v3.86v3.83v3.86v3.86v3.83h3.86v3.859v3.83h3.84v3.86h3.85h3.84v3.83   h3.85v3.86h3.84h3.85h3.84h3.85h3.84h3.85h3.86v-3.86h3.83h3.859v3.86h3.84v3.83h3.851v3.859h3.84v3.83h3.851v3.859h3.84v3.83h3.85   h3.84h3.85v-3.83h3.84v-3.859v-3.83v-3.859H90.39z M48.08,67.325v3.83h-3.85h-3.84h-3.85H32.7h-3.85v-3.83h-3.84v-3.86h-3.85h-3.84   v-3.83h-3.85v-3.859v-3.83H9.63v-3.86v-3.86v-3.83v-3.86v-3.83v-3.86h3.84v-3.83v-3.86h3.85v-3.83h3.84h3.85v-3.86h3.84v-3.83h3.85   h3.84h3.85h3.84h3.85v3.83h3.86v3.86h3.83h3.859v3.83h3.84v3.86v3.83h3.851v3.86v3.83v3.86v3.83v3.86v3.86H63.47v3.83v3.859h-3.84   v3.83h-3.859h-3.83v3.86H48.08z M90.39,86.535h-3.85v3.859H82.7v-3.859h-3.85v-3.83h-3.84v-3.859H71.16v-3.83h-3.84v-3.86H63.47   v-3.83v-3.86h3.851h3.84v3.86h3.851v3.83h3.84v3.86h3.85v3.83h3.84v3.859h3.85V86.535z"></path></g></svg></g></g></svg>